# xmcd
#
# Track frame offsets:
#	150
#	13760
#	30356
#	43766
#	61326
#	79013
#	94875
#	109444
#	123805
#	137590
#	152136
#	165453
#	179436
#	198451
#	215256
#	232687
#	241959
#	262367
#	277692
#
# Disc length: 3937 seconds
#
# Revision: 1
# Processed by: cddbd v1.5.2PL0 Copyright (c) Steve Scherf et al.
# Submitted via: audiograbber 1.83.01
#
DISCID=fc0f5f13
DTITLE=Various Artist - Country Rock Heads CD 1
DYEAR=2011
DGENRE=Country
TTITLE0=The Snakes - Jesus In A Box
TTITLE1=Rick Monroe - Honky Tonk Road Trip
TTITLE2=Barry P. Foley - Airport Love Story
TTITLE3=Madison Violet - Skylight
TTITLE4=Jackson Mackay - The Birds Fly Over
TTITLE5=Jolina Carl and David Lee Howard - I Hope You Stay
TTITLE6=Boomchickas - It Ain't Me
TTITLE7=Chuck Ragan - Glory
TTITLE8=Henry Eye - Times Do Change
TTITLE9=Karen McDawn - How Do You Do
TTITLE10=The Green Apple Sea - Satelite Wings
TTITLE11=Rebel Bunch - Girls Need A Man
TTITLE12=Kevin Costner and Modern West - Let Me Be The One
TTITLE13=Stan Silver - Higher Ground
TTITLE14=Hermann Lammers Meyer - Honky Tonk Hearts
TTITLE15=Gitty - Have A Little Faith In Me
TTITLE16=Johan Asherton - Offender
TTITLE17=Dean Wolf - My Blue Heart
TTITLE18=Bruce Guthro - Holy Road
EXTD=
EXTT0=
EXTT1=
EXTT2=
EXTT3=
EXTT4=
EXTT5=
EXTT6=
EXTT7=
EXTT8=
EXTT9=
EXTT10=
EXTT11=
EXTT12=
EXTT13=
EXTT14=
EXTT15=
EXTT16=
EXTT17=
EXTT18=
PLAYORDER=
